#!OML:ASF I:\Actors\actors\Patient Classification 1\Patient 1\Session 1\Subject1.ASF
:FULLY-SPECIFIED
:DEGREES
951
root 0.600142 17.499 9.40315 9.91738 -0.414099 -8.13751
lowerback -1.35649 2.85748 6.3034
upperback -7.51587 4.05795 0.790337
thorax -6.73762 1.66374 -2.85545
lowerneck -11.4472 -9.33896 -7.45489
upperneck 25.5053 -14.7533 10.9033
head 11.6116 -6.24566 3.13828
rclavicle -1.31198e-014 1.27222e-014
rhumerus -2.55701 5.40733 -70.6222
rradius 94.2035
rwrist 5.52724
rhand -17.213 -30.6265
rfingers 7.12502
rthumb 9.02981 -420.413
lclavicle -1.31198e-014 1.27222e-014
lhumerus -61.7523 53.8522 35.1125
lradius 27.3775
lwrist -13.9751
lhand -31.9512 -31.1922
lfingers 7.12502
lthumb -5.20164 -1.27605
rfemur -2.88287 26.2336 25.0944
rtibia 1.18848
rfoot -13.3968 -28.4866
rtoes 8.31394
lfemur 6.76003 -50.1032 -14.3274
ltibia -5.00637
lfoot -28.8304 57.0163
ltoes 16.1547
952
root 0.59948 17.4978 9.40183 9.92037 -0.267205 -8.21315
lowerback -1.41202 2.85134 6.21766
upperback -7.44912 4.0481 0.937728
thorax -6.64931 1.67371 -2.64869
lowerneck -11.6192 -9.53921 -7.58454
upperneck 25.4204 -14.9171 10.639
head 11.6177 -6.35602 3.02527
rclavicle 1.89839e-014 1.39149e-014
rhumerus -1.54425 4.40569 -69.9464
rradius 90.7812
rwrist 6.30017
rhand -17.7063 -30.2202
rfingers 7.12502
rthumb 8.55381 -420.027
lclavicle 1.89839e-014 1.39149e-014
lhumerus -59.8474 52.7108 37.5813
lradius 27.3865
lwrist -12.0372
lhand -32.1948 -31.0312
lfingers 7.12502
lthumb -5.43682 -1.12094
rfemur -2.88319 26.3191 25.1985
rtibia 1.19506
rfoot -13.5559 -28.6541
rtoes 8.89259
lfemur 6.54739 -49.8663 -14.0355
ltibia -5.00139
lfoot -28.1726 56.7997
ltoes 15.6261
953
root 0.599195 17.4979 9.40142 9.94252 -0.152506 -8.27772
lowerback -0.709616 3.01788 6.54391
upperback -7.93957 4.35584 0.727378
thorax -7.52885 1.75674 -3.11775
lowerneck -11.2612 -9.87251 -7.72794
upperneck 25.5324 -15.3723 10.5158
head 11.641 -6.60039 2.94421
rclavicle -5.2181e-015 -7.95139e-015
rhumerus -1.72188 3.11491 -69.5244
rradius 87.568
rwrist 7.02356
rhand -17.7135 -29.8469
rfingers 7.12502
rthumb 8.54679 -419.654
lclavicle -5.2181e-015 -7.95139e-015
lhumerus -58.6089 50.9233 39.0766
lradius 27.3675
lwrist -10.7436
lhand -32.8718 -29.6388
lfingers 7.12502
lthumb -6.09047 0.253644
rfemur -2.89548 26.3354 25.2776
rtibia 1.18301
rfoot -13.6274 -28.7491
rtoes 9.11158
lfemur 6.36516 -49.7035 -13.7959
ltibia -4.99292
lfoot -27.787 56.6248
ltoes 15.2623
954
root 0.599875 17.4995 9.40182 9.98114 -0.0717371 -8.32427
lowerback -0.658156 3.08174 6.56432
upperback -7.99228 4.45288 0.768686
thorax -7.6093 1.80116 -3.09484
lowerneck -11.2385 -10.1001 -7.84399
upperneck 25.3574 -15.6076 10.3538
head 11.5896 -6.74169 2.86331
rclavicle -1.43125e-014 3.97569e-016
rhumerus -0.989258 2.3104 -68.9962
rradius 84.186
rwrist 6.98968
rhand -17.9069 -29.7735
rfingers 7.12502
rthumb 8.36017 -419.588
lclavicle -1.43125e-014 3.97569e-016
lhumerus -58.4622 50.8265 39.2536
lradius 27.316
lwrist -10.7154
lhand -34.5517 -25.8116
lfingers 7.12502
lthumb -7.71206 4.02777
rfemur -2.91968 26.3034 25.3218
rtibia 1.16769
rfoot -13.6406 -28.7688
rtoes 9.16683
lfemur 6.19121 -49.543 -13.5937
ltibia -4.98877
lfoot -27.64 56.4426
ltoes 15.1772
955
root 0.6007 17.5008 9.40344 10.0343 0.00800254 -8.33265
lowerback -1.28283 3.02024 6.21686
upperback -7.59462 4.30294 1.08318
thorax -6.87085 1.79588 -2.51659
lowerneck -11.5412 -10.1869 -7.90988
upperneck 24.8872 -15.5616 10.1086
head 11.4456 -6.75572 2.77451
rclavicle 2.75814e-014 1.27222e-014
rhumerus 0.428617 1.52933 -68.6753
rradius 80.848
rwrist 6.75071
rhand -18.0683 -29.5889
rfingers 7.12502
rthumb 8.20443 -419.41
lclavicle 2.75814e-014 1.27222e-014
lhumerus -58.5683 51.7602 39.2151
lradius 27.2646
lwrist -10.9524
lhand -32.8825 -29.6423
lfingers 7.12502
lthumb -6.10074 0.249815
rfemur -2.94788 26.3297 25.3143
rtibia 1.1345
rfoot -13.6542 -28.8433
rtoes 9.34943
lfemur 6.04355 -49.5222 -13.4646
ltibia -4.97461
lfoot -27.6908 56.3536
ltoes 15.3701
956
root 0.599943 17.5014 9.40558 10.0814 0.0708288 -8.32087
lowerback -1.319 3.07177 6.11741
upperback -7.6119 4.37172 1.15206
thorax -6.87411 1.83856 -2.39055
lowerneck -11.5087 -10.357 -7.94635
upperneck 24.6501 -15.6947 9.85217
head 11.341 -6.85635 2.66642
rclavicle 3.40419e-014 4.6118e-014
rhumerus 0.640881 -0.093122 -68.9909
rradius 77.8678
rwrist 7.14482
rhand -18.1798 -28.8286
rfingers 7.12502
rthumb 8.0968 -418.654
lclavicle 3.40419e-014 4.6118e-014
lhumerus -58.6105 51.8278 39.1796
lradius 27.1895
lwrist -11.0485
lhand -32.8096 -29.6552
lfingers 7.12502
lthumb -6.0304 0.238953
rfemur -2.96726 26.4165 25.2892
rtibia 1.08357
rfoot -13.6668 -28.9787
rtoes 9.60083
lfemur 6.02605 -49.8128 -13.4722
ltibia -4.95152
lfoot -28.0398 56.4951
ltoes 15.6463
957
root 0.598394 17.5016 9.40678 10.1102 0.11396 -8.30188
lowerback -1.29903 3.13376 6.02684
upperback -7.64482 4.45957 1.20763
thorax -6.92416 1.88782 -2.28797
lowerneck -11.4653 -10.5235 -7.99182
upperneck 24.465 -15.8238 9.57765
head 11.2527 -6.9567 2.55569
rclavicle -3.18552e-014 -2.06736e-014
rhumerus 1.0233 -1.67629 -69.2606
rradius 74.7664
rwrist 8.0562
rhand -18.4155 -28.1351
rfingers 7.12502
rthumb 7.86933 -417.969
lclavicle -3.18552e-014 -2.06736e-014
lhumerus -58.7371 51.9559 39.0375
lradius 27.0831
lwrist -11.2795
lhand -33.9664 -27.0149
lfingers 7.12502
lthumb -7.14709 2.84437
rfemur -2.9799 26.4802 25.2665
rtibia 1.05231
rfoot -13.6814 -29.078
rtoes 9.69186
lfemur 6.07918 -50.1783 -13.5541
ltibia -4.92018
lfoot -28.5709 56.6806
ltoes 15.979
958
root 0.597239 17.502 9.40791 10.1293 0.161892 -8.24375
lowerback -1.26006 3.20322 5.93475
upperback -7.68941 4.55618 1.20487
thorax -6.99292 1.93866 -2.24742
lowerneck -11.3919 -10.6928 -7.98542
upperneck 24.3001 -15.9904 9.36169
head 11.1714 -7.06353 2.45432
rclavicle 4.10242e-014 2.34566e-014
rhumerus 1.57186 -2.86421 -69.2376
rradius 71.736
rwrist 9.07572
rhand -18.5866 -27.9542
rfingers 7.12502
rthumb 7.70415 -417.794
lclavicle 4.10242e-014 2.34566e-014
lhumerus -58.8036 52.0584 38.8727
lradius 26.9518
lwrist -11.6184
lhand -34.5327 -25.6569
lfingers 7.12502
lthumb -7.69371 4.18313
rfemur -2.97407 26.489 25.2035
rtibia 1.015
rfoot -13.6401 -29.1383
rtoes 9.58024
lfemur 6.05879 -50.2885 -13.6175
ltibia -4.8914
lfoot -28.8083 56.6779
ltoes 16.1866
959
root 0.595388 17.503 9.40965 10.1374 0.212354 -8.19525
lowerback -1.21287 3.25529 5.81023
upperback -7.72839 4.63041 1.22937
thorax -7.06679 1.98141 -2.16041
lowerneck -11.4124 -10.8622 -7.95776
upperneck 24.1991 -16.1599 9.12704
head 11.1287 -7.16592 2.3381
rclavicle -3.08116e-015 -1.98785e-015
rhumerus 2.07461 -3.77811 -69.1366
rradius 68.8795
rwrist 9.79034
rhand -18.658 -27.9058
rfingers 7.12502
rthumb 7.63528 -417.748
lclavicle -3.08116e-015 -1.98785e-015
lhumerus -58.8145 52.103 38.7954
lradius 26.8264
lwrist -11.735
lhand -34.5747 -25.7192
lfingers 7.12502
lthumb -7.73427 4.11933
rfemur -2.93291 26.4623 25.1623
rtibia 0.932285
rfoot -13.5114 -29.2023
rtoes 9.40589
lfemur 6.0055 -50.2344 -13.62
ltibia -4.89108
lfoot -28.7005 56.6133
ltoes 16.095
960
root 0.592617 17.5038 9.41074 10.1556 0.278665 -8.19347
lowerback -1.14993 3.30094 5.69975
upperback -7.76759 4.69989 1.29098
thorax -7.15323 2.02199 -2.04349
lowerneck -11.4531 -10.9989 -8.04215
upperneck 24.0962 -16.2973 9.03528
head 11.1105 -7.24669 2.29361
rclavicle -5.04416e-015 -1.59028e-015
rhumerus 2.85201 -4.25076 -68.8282
rradius 65.688
rwrist 9.58091
rhand -18.8309 -28.0872
rfingers 7.12502
rthumb 7.4684 -417.935
lclavicle -5.04416e-015 -1.59028e-015
lhumerus -58.8063 52.1319 38.7999
lradius 26.7198
lwrist -11.7142
lhand -34.6303 -25.756
lfingers 7.12502
lthumb -7.78796 4.08055
rfemur -2.9084 26.4896 25.1751
rtibia 0.852593
rfoot -13.4473 -29.3181
rtoes 9.23883
lfemur 5.91643 -50.2229 -13.5314
ltibia -4.88536
lfoot -28.5819 56.5775
ltoes 15.988
961
root 0.59046 17.5038 9.41049 10.2014 0.371943 -8.19801
lowerback -1.10079 3.3673 5.63069
upperback -7.80126 4.79581 1.33167
thorax -7.21972 2.07318 -1.97122
lowerneck -11.4619 -11.1457 -8.22139
upperneck 23.953 -16.4689 9.0966
head 11.0991 -7.33646 2.31332
rclavicle -2.46493e-014 1.19271e-015
rhumerus 3.85527 -4.55083 -68.4233
rradius 62.2715
rwrist 8.70318
rhand -19.088 -28.5436
rfingers 7.12502
rthumb 7.22017 -418.4
lclavicle -2.46493e-014 1.19271e-015
lhumerus -58.8058 52.2505 38.7735
lradius 26.6049
lwrist -11.8736
lhand -32.6546 -29.564
lfingers 7.12502
lthumb -5.88075 0.334414
rfemur -2.93798 26.5497 25.1773
rtibia 0.825839
rfoot -13.5354 -29.4405
rtoes 9.24849
lfemur 5.72642 -50.201 -13.3681
ltibia -4.84101
lfoot -28.3943 56.4915
ltoes 15.8743
962
root 0.588572 17.5036 9.41021 10.2421 0.448271 -8.20578
lowerback -1.07972 3.43527 5.54916
upperback -7.80943 4.89091 1.39016
thorax -7.24512 2.12718 -1.87092
lowerneck -11.4924 -11.3263 -8.40951
upperneck 23.8078 -16.6852 9.15561
head 11.0969 -7.44638 2.32442
rclavicle 9.41742e-015 1.59028e-015
rhumerus 4.4641 -5.28503 -68.3596
rradius 59.3975
rwrist 8.47597
rhand -19.2966 -28.6141
rfingers 7.12502
rthumb 7.01888 -418.478
lclavicle 9.41742e-015 1.59028e-015
lhumerus -58.9051 52.4833 38.656
lradius 26.4891
lwrist -12.1117
lhand -32.5786 -29.6343
lfingers 7.12502
lthumb -5.80736 0.266149
rfemur -2.96647 26.5673 25.1785
rtibia 0.816298
rfoot -13.6706 -29.48
rtoes 9.4999
lfemur 5.58014 -50.1966 -13.2472
ltibia -4.7964
lfoot -28.281 56.437
ltoes 15.7956
963
root 0.586334 17.504 9.41112 10.3027 0.511912 -8.24314
lowerback -1.11071 3.49356 5.45408
upperback -7.81412 4.97035 1.48176
thorax -7.24218 2.17659 -1.72451
lowerneck -11.4971 -11.5002 -8.54913
upperneck 23.6154 -16.8851 9.17027
head 11.0614 -7.55221 2.31711
rclavicle -9.34288e-015 -4.96962e-015
rhumerus 4.66376 -6.3699 -68.5475
rradius 57.0402
rwrist 9.34513
rhand -19.3657 -28.1773
rfingers 7.12502
rthumb 6.95214 -418.043
lclavicle -9.34288e-015 -4.96962e-015
lhumerus -58.9471 52.6375 38.6582
lradius 26.3796
lwrist -12.2802
lhand -34.508 -25.7951
lfingers 7.12502
lthumb -7.66995 4.0458
rfemur -3.00972 26.5341 25.1973
rtibia 0.774675
rfoot -13.7423 -29.4471
rtoes 9.82881
lfemur 5.51492 -50.3955 -13.1565
ltibia -4.77711
lfoot -28.5539 56.5216
ltoes 16.0632
964
root 0.583716 17.5053 9.41278 10.3903 0.60363 -8.30331
lowerback -1.14184 3.5511 5.39165
upperback -7.84869 5.05127 1.5674
thorax -7.2694 2.22318 -1.60333
lowerneck -11.4932 -11.6498 -8.65979
upperneck 23.4417 -17.0578 9.1812
head 11.0257 -7.64342 2.30917
rclavicle 1.86361e-015 2.00773e-014
rhumerus 4.76944 -7.45391 -68.7531
rradius 54.8947
rwrist 10.4385
rhand -19.2983 -27.9713
rfingers 7.12502
rthumb 7.01725 -417.835
lclavicle 1.86361e-015 2.00773e-014
lhumerus -58.8557 52.6526 38.8363
lradius 26.2699
lwrist -12.3774
lhand -34.5482 -25.7822
lfingers 7.12502
lthumb -7.70872 4.05732
rfemur -3.09506 26.4627 25.2292
rtibia 0.730393
rfoot -13.7443 -29.43
rtoes 9.99404
lfemur 5.42263 -50.6823 -13.0049
ltibia -4.77374
lfoot -28.9091 56.6771
ltoes 16.2936
